{"glyphs":{":":{"x_min":0,"x_max":333,"ha":333,"o":"m 179 519 l 317 519 l 289 383 l 150 383 z m 99 135 l 237 135 l 209 0 l 70 0 z"},"$":{"x_min":0,"x_max":556,"ha":556,"o":"m 209 -5 q 140 12 95 68 q 50 124 44 208 l 167 214 q 177 130 232 105 l 277 321 q 200 355 164 409 q 128 463 128 521 q 128 574 156 624 q 185 673 238 701 q 290 729 337 729 l 363 728 l 372 770 l 441 770 l 431 720 q 494 704 532 659 q 570 614 576 544 l 456 538 q 447 592 409 614 l 368 419 q 455 384 493 332 q 531 279 531 212 q 531 118 461 52 q 391 -13 278 -13 l 260 -99 l 190 -99 z m 304 448 l 341 625 q 300 626 272 599 q 245 573 245 536 q 245 481 304 448 z m 341 291 l 300 95 q 355 100 385 129 q 416 159 416 200 q 416 227 402 247 q 388 266 341 291 z"},"?":{"x_min":0,"x_max":611,"ha":611,"o":"m 342 179 l 216 179 q 226 244 257 292 q 288 340 381 421 q 459 490 473 512 q 487 534 487 554 q 487 584 463 605 q 439 625 390 625 q 335 625 301 595 q 266 565 251 500 l 123 522 q 148 618 219 673 q 291 728 393 728 q 499 728 559 675 q 618 622 618 548 q 618 505 593 463 q 567 420 454 326 q 382 266 366 243 q 349 219 342 179 z m 201 135 l 340 135 l 312 0 l 173 0 z"},"<":{"x_min":0,"x_max":584,"ha":584,"o":"m 576 82 l 85 295 l 85 413 l 576 625 l 576 486 l 234 355 l 576 220 z"},"'":{"x_min":0,"x_max":238,"ha":238,"o":"m 151 461 l 154 595 l 180 716 l 329 716 l 303 595 l 252 461 z"},"=":{"x_min":0,"x_max":584,"ha":584,"o":"m 81 398 l 81 524 l 581 524 l 581 398 z m 81 182 l 81 308 l 581 308 l 581 182 z"},"a":{"x_min":0,"x_max":556,"ha":556,"o":"m 238 372 l 101 383 q 125 453 183 492 q 241 531 337 531 q 438 531 485 490 q 533 450 533 392 q 533 369 529 342 q 525 316 500 204 q 479 111 479 74 q 479 41 491 0 l 355 0 q 347 28 345 59 q 314 24 274 6 q 234 -12 193 -12 q 129 -12 87 30 q 45 72 45 139 q 45 213 91 257 q 137 302 256 311 q 356 319 390 331 q 398 360 398 378 q 398 400 380 416 q 362 431 327 431 q 289 431 267 415 q 246 400 238 372 z m 371 242 q 358 238 337 235 q 232 223 200 198 q 177 181 177 151 q 177 126 194 110 q 212 93 241 93 q 272 93 301 108 q 329 124 343 148 q 356 172 367 223 z"},"L":{"x_min":0,"x_max":611,"ha":611,"o":"m 45 0 l 195 716 l 342 716 l 217 120 l 582 120 l 557 0 z"},"3":{"x_min":0,"x_max":556,"ha":556,"o":"m 51 187 l 185 203 q 193 146 215 124 q 237 102 273 102 q 321 102 352 134 q 384 167 384 217 q 384 261 358 286 q 333 312 290 312 q 279 312 268 310 l 292 427 q 299 426 306 426 q 362 426 392 454 q 421 483 421 532 q 421 566 401 586 q 381 606 349 606 q 319 606 295 584 q 271 562 257 508 l 129 534 q 153 613 197 655 q 263 719 359 719 q 458 719 509 664 q 560 609 560 532 q 560 477 527 432 q 495 387 438 366 q 483 342 504 304 q 526 266 526 224 q 526 145 470 79 q 393 -12 272 -12 q 181 -12 122 40 q 63 92 51 187 z"},";":{"x_min":0,"x_max":333,"ha":333,"o":"m 181 519 l 320 519 l 292 383 l 153 383 z m 102 135 l 243 135 l 219 23 q 199 -73 155 -114 q 111 -154 41 -155 l 54 -90 q 89 -83 109 -62 q 128 -42 137 0 l 73 0 z"},"J":{"x_min":0,"x_max":556,"ha":556,"o":"m 455 716 l 600 716 l 509 282 q 473 110 415 49 q 356 -12 234 -12 q 131 -12 80 35 q 29 83 29 164 q 29 181 31 202 l 167 217 q 165 195 165 181 q 165 147 184 129 q 204 111 244 111 q 301 111 324 144 q 341 169 365 287 z"},"V":{"x_min":0,"x_max":667,"ha":667,"o":"m 399 0 l 242 0 l 113 716 l 260 716 l 351 174 l 647 716 l 793 716 z"},"\"":{"x_min":0,"x_max":474,"ha":474,"o":""},"7":{"x_min":0,"x_max":556,"ha":556,"o":"m 104 577 l 130 706 l 603 706 l 582 606 q 537 570 482 498 q 428 425 382 336 q 336 246 307 166 q 266 54 256 0 l 123 0 q 132 54 165 147 q 205 263 265 370 q 325 478 410 577 z"},"S":{"x_min":0,"x_max":667,"ha":667,"o":"m 63 232 l 204 239 q 207 172 227 149 q 259 111 346 111 q 418 111 450 137 q 482 163 482 199 q 482 231 456 253 q 438 269 354 305 q 271 341 233 365 q 194 390 172 428 q 150 467 150 519 q 150 609 216 668 q 281 728 405 728 q 531 728 600 669 q 669 610 676 512 l 535 505 q 530 557 498 584 q 466 611 404 611 q 343 611 317 590 q 291 568 291 536 q 291 505 315 485 q 339 464 421 429 q 544 375 578 342 q 628 293 628 217 q 628 122 553 55 q 479 -12 345 -12 q 252 -12 185 19 q 117 50 89 105 q 62 160 63 232 z"},"}":{"x_min":0,"x_max":389,"ha":389,"o":"m 338 200 q 294 198 269 183 q 244 167 226 132 q 208 97 190 12 q 173 -72 154 -110 q 135 -147 108 -168 q 82 -189 36 -202 q 4 -210 -59 -210 l -85 -210 l -60 -93 q -7 -93 12 -86 q 31 -79 41 -63 q 48 -53 63 7 q 90 114 98 136 q 115 178 142 208 q 168 238 208 259 q 176 283 164 308 q 151 333 151 376 q 151 394 157 428 q 173 521 177 541 q 182 560 182 573 q 182 586 176 595 q 169 603 156 607 q 142 611 93 611 l 118 728 l 144 728 q 211 728 245 717 q 278 706 296 681 q 314 656 314 616 q 314 583 297 505 q 280 427 280 401 q 280 359 298 339 q 316 320 363 317 z"},"Z":{"x_min":0,"x_max":611,"ha":611,"o":"m 25 0 l 48 113 l 460 596 l 127 596 l 152 716 l 668 716 l 646 604 l 230 117 q 296 119 307 119 q 354 119 436 120 l 605 120 l 580 0 z"},"x":{"x_min":0,"x_max":556,"ha":556,"o":"m 279 146 l 150 0 l -22 0 l 218 266 l 86 519 l 235 519 l 311 371 l 442 519 l 612 519 l 372 250 l 502 0 l 354 0 z"},")":{"x_min":0,"x_max":333,"ha":333,"o":"m 118 728 l 213 728 q 253 635 272 540 q 292 444 292 365 q 292 265 260 165 q 228 64 162 -40 q 120 -106 28 -210 l -78 -210 q 15 -101 65 -5 q 116 90 141 204 q 166 317 166 426 q 166 500 155 569 q 144 638 118 728 z"},"&":{"x_min":0,"x_max":722,"ha":722,"o":"m 605 312 l 706 251 q 692 224 669 192 q 646 160 627 142 q 655 112 698 75 l 610 -17 q 593 -8 568 13 q 542 34 524 53 q 489 25 436 6 q 383 -12 321 -12 q 210 -12 146 47 q 83 105 83 191 q 83 245 108 292 q 133 338 173 372 q 202 396 267 430 q 235 499 235 550 q 235 625 290 677 q 345 728 435 728 q 512 728 557 687 q 603 646 603 592 q 603 545 564 491 q 525 438 436 393 q 464 346 505 285 q 530 248 545 232 q 570 257 605 312 z m 385 488 q 443 518 466 547 q 483 569 483 591 q 483 611 469 624 q 456 637 433 637 q 403 637 384 616 q 364 596 364 563 q 364 532 385 488 z m 318 332 q 221 283 221 204 q 221 159 250 130 q 279 102 327 102 q 385 102 446 142 q 373 232 318 332 z"},"_":{"x_min":0,"x_max":556,"ha":556,"o":"m -9 -198 l -9 -109 l 561 -109 l 561 -198 z"},"v":{"x_min":0,"x_max":556,"ha":556,"o":"m 299 0 l 179 0 l 75 519 l 212 519 l 249 292 q 264 201 267 170 q 271 179 301 234 q 331 289 338 300 l 467 519 l 618 519 z"},"O":{"x_min":0,"x_max":778,"ha":778,"o":"m 87 281 q 87 344 106 415 q 131 509 182 578 q 233 647 311 688 q 389 728 488 728 q 621 728 702 646 q 784 563 784 427 q 784 313 731 208 q 678 102 586 44 q 495 -13 380 -13 q 280 -13 212 33 q 144 78 116 145 q 87 212 87 281 z m 233 284 q 233 210 278 160 q 323 110 396 110 q 456 110 510 150 q 565 189 601 269 q 637 349 637 424 q 637 509 592 557 q 546 605 476 605 q 368 605 301 504 q 233 404 233 284 z"},"(":{"x_min":0,"x_max":333,"ha":333,"o":"m 240 -210 l 145 -210 q 104 -117 85 -22 q 66 74 66 153 q 66 253 98 353 q 130 454 196 558 q 237 624 329 728 l 436 728 q 342 619 292 522 q 241 426 216 313 q 191 200 191 91 q 191 18 202 -51 q 213 -121 240 -210 z"},"C":{"x_min":0,"x_max":722,"ha":722,"o":"m 560 258 l 708 235 q 665 115 578 51 q 491 -13 374 -13 q 243 -13 169 66 q 95 146 95 296 q 95 418 144 519 q 194 621 282 674 q 370 728 473 728 q 589 728 661 666 q 733 604 746 496 l 604 482 q 593 545 559 573 q 526 601 470 601 q 409 601 356 564 q 303 527 271 448 q 240 369 240 291 q 240 205 281 158 q 322 111 384 111 q 441 111 489 148 q 536 185 560 258 z"},"W":{"x_min":0,"x_max":944,"ha":944,"o":"m 722 0 l 573 0 l 557 523 l 296 0 l 144 0 l 117 716 l 261 716 l 268 215 l 513 716 l 673 716 l 689 220 l 925 716 l 1068 716 z"},"A":{"x_min":0,"x_max":722,"ha":722,"o":"m 510 158 l 226 158 l 140 0 l -11 0 l 394 716 l 557 716 l 673 0 l 534 0 z m 492 277 l 450 565 l 277 277 z"},"f":{"x_min":0,"x_max":333,"ha":333,"o":"m 401 519 l 380 416 l 281 416 l 194 0 l 54 0 l 141 416 l 62 416 l 84 519 l 162 519 l 173 572 q 187 637 199 660 q 216 691 249 710 q 282 728 335 728 q 399 728 471 705 l 443 604 q 393 622 362 622 q 338 622 326 606 q 318 597 310 555 l 302 519 z"},"Q":{"x_min":0,"x_max":778,"ha":778,"o":"m 526 14 q 492 1 456 -6 q 419 -13 380 -13 q 249 -13 168 69 q 87 151 87 283 q 87 391 138 501 q 188 611 280 670 q 371 728 488 728 q 621 728 702 646 q 784 563 784 427 q 784 322 740 227 q 696 131 623 71 q 670 25 722 -4 l 652 -95 q 584 -62 526 14 z m 539 173 q 583 218 610 290 q 637 361 637 424 q 637 509 592 557 q 546 605 476 605 q 428 605 387 583 q 346 561 311 519 q 277 477 255 415 q 233 353 233 291 q 233 207 280 159 q 326 111 397 111 q 417 111 439 114 q 447 115 449 117 q 451 118 451 121 q 451 125 436 139 q 405 168 371 181 l 424 263 q 490 229 539 173 z"},"w":{"x_min":0,"x_max":778,"ha":778,"o":"m 582 0 l 450 0 l 425 330 l 267 0 l 137 0 l 72 519 l 196 519 l 232 171 l 394 519 l 521 519 l 539 171 l 700 519 l 840 519 z"},"-":{"x_min":0,"x_max":333,"ha":333,"o":"m 67 326 l 339 326 l 311 190 l 39 190 z"},"E":{"x_min":0,"x_max":667,"ha":667,"o":"m 41 0 l 190 716 l 721 716 l 696 596 l 313 596 l 279 434 l 649 434 l 625 314 l 254 314 l 209 120 l 625 120 l 600 0 z"},"s":{"x_min":0,"x_max":556,"ha":556,"o":"m 22 145 l 158 167 q 176 124 203 106 q 229 88 276 88 q 324 88 353 109 q 373 124 373 145 q 373 159 362 170 q 352 181 304 197 q 177 239 147 263 q 100 301 100 363 q 100 424 146 469 q 209 531 335 531 q 436 531 487 494 q 538 458 552 395 l 422 373 q 412 401 389 415 q 358 434 314 434 q 270 434 251 419 q 231 405 231 386 q 231 366 251 354 q 263 346 330 326 q 432 296 467 268 q 516 227 516 170 q 516 96 454 42 q 392 -12 279 -12 q 167 -12 105 29 q 44 70 22 145 z"},">":{"x_min":0,"x_max":584,"ha":584,"o":"m 85 81 l 85 219 l 428 354 l 85 487 l 85 625 l 577 412 l 577 295 z"},"l":{"x_min":0,"x_max":278,"ha":278,"o":"m 39 0 l 189 716 l 329 716 l 179 0 z"},"8":{"x_min":0,"x_max":556,"ha":556,"o":"m 215 394 q 177 419 158 451 q 140 484 140 523 q 140 569 166 617 q 192 664 245 691 q 297 719 364 719 q 459 719 513 669 q 567 619 567 543 q 567 489 537 449 q 506 410 446 383 q 490 356 511 318 q 533 280 533 230 q 533 149 481 83 q 406 -13 276 -13 q 181 -13 124 43 q 66 99 66 186 q 66 257 106 314 q 146 371 215 394 z m 268 514 q 268 480 289 460 q 309 439 342 439 q 379 439 408 468 q 437 496 437 534 q 437 569 416 590 q 395 612 362 612 q 323 612 296 583 q 268 555 268 514 z m 206 183 q 206 143 228 120 q 250 97 285 97 q 339 97 368 145 q 398 193 398 249 q 398 285 375 308 q 353 332 317 332 q 273 332 240 291 q 206 250 206 183 z"},"\\":{"x_min":0,"x_max":278,"ha":278,"o":"m 189 -12 l 78 728 l 176 728 l 287 -12 z"},"e":{"x_min":0,"x_max":556,"ha":556,"o":"m 545 216 l 193 216 q 193 208 193 203 q 193 151 222 120 q 252 88 294 88 q 364 88 403 160 l 529 139 q 492 63 431 26 q 370 -12 293 -12 q 189 -12 124 54 q 58 120 58 229 q 58 335 117 418 q 198 531 347 531 q 442 531 499 472 q 555 413 555 307 q 555 256 545 216 z m 427 301 q 427 311 427 315 q 427 373 401 402 q 375 431 332 431 q 289 431 254 398 q 220 365 208 301 z"},"b":{"x_min":0,"x_max":611,"ha":611,"o":"m 36 0 l 186 716 l 326 716 l 276 477 q 314 506 348 518 q 381 531 421 531 q 503 531 552 476 q 602 421 602 316 q 602 245 578 178 q 555 112 516 70 q 478 28 435 8 q 392 -12 345 -12 q 234 -12 182 85 l 164 0 z m 225 211 q 225 159 255 126 q 284 94 324 94 q 359 94 391 119 q 423 145 445 200 q 466 256 466 312 q 466 368 437 399 q 409 431 368 431 q 315 431 277 382 q 225 315 225 211 z"},"%":{"x_min":0,"x_max":889,"ha":889,"o":"m 91 494 q 91 587 141 657 q 191 728 282 728 q 343 728 380 689 q 417 650 417 580 q 417 522 392 464 q 367 406 323 379 q 280 352 226 352 q 166 352 128 390 q 91 428 91 494 z m 194 482 q 194 458 205 446 q 215 435 234 435 q 269 435 293 488 q 316 541 316 600 q 316 621 305 633 q 294 645 276 645 q 255 645 239 628 q 223 611 208 562 q 194 513 194 482 z m 237 -31 l 124 -31 l 721 728 l 833 728 z m 538 112 q 538 205 588 276 q 639 347 729 347 q 791 347 827 308 q 864 269 864 199 q 864 141 839 83 q 814 24 771 -2 q 727 -29 673 -29 q 613 -29 575 9 q 538 47 538 112 z m 641 101 q 641 76 651 65 q 662 53 681 53 q 716 53 740 106 q 764 159 764 218 q 764 240 752 252 q 741 264 723 264 q 703 264 686 247 q 670 230 655 181 q 641 132 641 101 z"},"m":{"x_min":0,"x_max":889,"ha":889,"o":"m 144 519 l 276 519 l 263 456 q 340 531 425 531 q 483 531 515 506 q 547 482 556 439 q 583 478 633 504 q 683 531 737 531 q 799 531 834 498 q 869 464 869 410 q 869 383 855 317 l 789 0 l 648 0 l 715 317 q 727 376 727 384 q 727 406 714 418 q 701 431 675 431 q 623 431 582 375 q 552 336 531 235 l 482 0 l 342 0 l 407 313 q 418 368 418 384 q 418 404 405 417 q 391 431 366 431 q 343 431 319 417 q 294 403 276 379 q 258 355 245 318 q 239 300 226 238 l 176 0 l 36 0 z"},"#":{"x_min":0,"x_max":556,"ha":556,"o":"m 114 178 l 48 178 l 48 286 l 136 286 l 165 430 l 48 430 l 48 538 l 187 538 l 226 728 l 335 728 l 296 538 l 404 538 l 442 728 l 555 728 l 516 538 l 583 538 l 583 430 l 494 430 l 465 286 l 583 286 l 583 178 l 443 178 l 404 -12 l 295 -12 l 333 178 l 225 178 l 186 -12 l 76 -12 z m 275 430 l 246 286 l 354 286 l 383 430 z"},",":{"x_min":0,"x_max":278,"ha":278,"o":"m 71 135 l 212 135 l 189 23 q 169 -73 125 -114 q 81 -154 10 -155 l 24 -90 q 59 -83 78 -62 q 98 -42 107 0 l 42 0 z"},"n":{"x_min":0,"x_max":611,"ha":611,"o":"m 150 519 l 283 519 l 270 451 q 319 494 363 512 q 406 531 454 531 q 518 531 554 494 q 591 458 591 397 q 591 370 575 293 l 514 0 l 374 0 l 436 294 q 449 360 449 373 q 449 400 433 415 q 417 431 389 431 q 358 431 321 405 q 283 379 262 336 q 246 306 227 213 l 182 0 l 42 0 z"},"h":{"x_min":0,"x_max":611,"ha":611,"o":"m 182 0 l 42 0 l 192 716 l 332 716 l 278 461 q 326 498 367 514 q 408 531 455 531 q 518 531 554 495 q 591 458 591 400 q 591 369 577 303 l 514 0 l 374 0 l 438 309 q 449 359 449 374 q 449 399 433 415 q 417 431 389 431 q 354 431 321 406 q 279 374 257 327 q 245 301 225 206 z"},"z":{"x_min":0,"x_max":500,"ha":500,"o":"m 17 0 l 37 95 l 321 409 l 89 409 l 112 519 l 519 519 l 501 435 l 215 113 l 464 113 l 440 0 z"},"B":{"x_min":0,"x_max":722,"ha":722,"o":"m 40 0 l 190 716 l 435 716 q 514 716 546 711 q 599 704 635 682 q 672 660 691 623 q 710 586 710 542 q 710 482 677 439 q 644 395 574 373 q 629 357 660 319 q 691 280 691 231 q 691 167 655 109 q 618 51 554 25 q 489 0 377 0 z m 276 427 l 389 427 q 464 427 498 438 q 531 448 547 473 q 564 497 564 525 q 564 552 548 570 q 533 587 504 593 q 488 596 426 596 l 312 596 z m 211 115 l 354 115 q 443 115 473 127 q 504 138 522 165 q 541 191 541 220 q 541 256 514 279 q 488 302 426 302 l 250 302 z"},"K":{"x_min":0,"x_max":722,"ha":722,"o":"m 40 0 l 189 716 l 336 716 l 273 412 l 604 716 l 801 716 l 480 435 l 716 0 l 549 0 l 373 341 l 233 219 l 188 0 z"},"R":{"x_min":0,"x_max":722,"ha":722,"o":"m 191 0 l 44 0 l 194 716 l 512 716 q 594 716 639 699 q 685 682 713 637 q 741 592 741 528 q 741 437 687 378 q 632 318 521 304 q 549 279 574 237 q 624 153 684 0 l 526 0 q 507 61 451 189 q 421 258 387 282 q 366 296 313 296 l 253 296 z m 276 404 l 354 404 q 473 404 511 418 q 550 432 572 462 q 594 493 594 526 q 594 565 562 584 q 543 596 478 596 l 316 596 z"},"T":{"x_min":0,"x_max":611,"ha":611,"o":"m 353 0 l 205 0 l 330 596 l 120 596 l 145 716 l 709 716 l 684 596 l 477 596 z"},"P":{"x_min":0,"x_max":667,"ha":667,"o":"m 188 0 l 41 0 l 190 716 l 481 716 q 559 716 604 698 q 649 679 676 637 q 702 595 702 536 q 702 482 681 431 q 660 379 630 349 q 599 318 564 302 q 529 286 469 278 q 435 273 339 273 l 245 273 z m 270 392 l 315 392 q 432 392 471 406 q 510 421 532 453 q 555 485 555 524 q 555 550 543 566 q 532 583 511 591 q 490 598 418 598 l 313 598 z"},"|":{"x_min":0,"x_max":280,"ha":280,"o":"m 86 -210 l 86 728 l 195 728 l 195 -210 z"},"t":{"x_min":0,"x_max":333,"ha":333,"o":"m 75 415 l 97 519 l 165 519 l 182 602 l 343 698 l 305 519 l 391 519 l 369 415 l 283 415 l 238 197 q 226 138 226 130 q 226 114 236 105 q 246 96 273 96 q 282 96 319 99 l 297 -5 q 261 -12 223 -12 q 149 -12 115 16 q 82 45 82 96 q 82 120 100 206 l 143 415 z"},"M":{"x_min":0,"x_max":833,"ha":833,"o":"m 453 0 l 313 0 l 287 598 l 173 0 l 41 0 l 190 716 l 400 716 l 422 214 l 666 716 l 878 716 l 729 0 l 594 0 l 735 594 z"},"g":{"x_min":0,"x_max":611,"ha":611,"o":"m 33 -27 l 181 -49 q 181 -71 188 -83 q 195 -94 212 -102 q 228 -110 256 -110 q 301 -110 328 -93 q 348 -79 360 -49 q 368 -30 380 34 l 385 59 q 312 -2 235 -2 q 159 -2 110 52 q 61 105 61 209 q 61 300 94 376 q 127 453 188 492 q 248 531 310 531 q 362 531 405 503 q 448 476 472 427 l 491 519 l 623 519 l 533 86 q 511 -18 496 -62 q 480 -106 461 -133 q 441 -159 412 -177 q 382 -195 341 -203 q 301 -210 253 -210 q 144 -210 87 -173 q 31 -135 31 -48 q 31 -39 33 -27 z m 198 223 q 198 164 224 133 q 251 102 291 102 q 328 102 362 130 q 396 158 415 209 q 433 260 433 308 q 433 363 403 397 q 374 431 334 431 q 297 431 265 401 q 234 371 213 309 q 198 261 198 223 z"},"j":{"x_min":0,"x_max":278,"ha":278,"o":"m 190 716 l 331 716 l 305 589 l 164 589 z m 149 519 l 290 519 l 198 80 q 159 -108 131 -148 q 89 -210 -4 -210 q -62 -210 -109 -195 l -87 -79 q -54 -87 -31 -87 q -2 -87 15 -65 q 32 -43 60 89 z"},"i":{"x_min":0,"x_max":278,"ha":278,"o":"m 189 716 l 330 716 l 303 589 l 163 589 z m 148 519 l 289 519 l 180 0 l 40 0 z"},"y":{"x_min":0,"x_max":556,"ha":556,"o":"m 83 519 l 223 519 l 258 260 q 271 161 273 121 q 300 200 348 289 l 472 519 l 621 519 l 300 -51 q 261 -122 238 -150 q 215 -178 183 -194 q 151 -210 106 -210 q 62 -210 6 -195 l 19 -90 q 44 -98 68 -98 q 132 -98 174 0 z"},"@":{"x_min":0,"x_max":975,"ha":975,"o":"m 903 9 l 1007 9 q 958 -90 857 -146 q 741 -210 575 -210 q 414 -210 296 -156 q 179 -102 122 5 q 65 111 65 236 q 65 373 130 491 q 195 610 308 669 q 420 729 565 729 q 688 729 784 681 q 880 633 930 545 q 981 457 981 352 q 981 228 904 127 q 808 0 658 0 q 617 0 597 14 q 576 28 569 56 q 512 0 437 0 q 355 0 302 56 q 249 112 249 205 q 249 319 313 414 q 391 529 513 529 q 600 529 642 463 l 654 517 l 783 517 l 709 167 q 702 134 702 124 q 702 112 708 106 q 713 100 721 100 q 745 100 782 128 q 832 165 862 228 q 893 290 893 357 q 893 477 806 558 q 719 639 563 639 q 431 639 339 585 q 247 531 200 433 q 154 335 154 229 q 154 126 206 42 q 258 -43 352 -82 q 446 -121 567 -121 q 684 -121 768 -88 q 852 -56 903 9 z m 375 210 q 375 148 400 119 q 425 89 462 89 q 490 89 515 103 q 533 113 551 134 q 577 164 596 221 q 615 278 615 327 q 615 382 589 412 q 563 441 524 441 q 482 441 447 409 q 411 376 393 316 q 375 256 375 210 z"},".":{"x_min":0,"x_max":278,"ha":278,"o":"m 72 135 l 211 135 l 183 0 l 44 0 z"},"p":{"x_min":0,"x_max":611,"ha":611,"o":"m 144 519 l 277 519 l 266 465 q 308 500 345 516 q 382 531 425 531 q 506 531 556 475 q 605 418 605 307 q 605 167 520 70 q 447 -12 347 -12 q 244 -12 191 71 l 135 -198 l -5 -198 z m 229 221 q 229 161 258 127 q 288 94 328 94 q 362 94 395 119 q 427 144 448 202 q 469 261 469 311 q 469 369 441 400 q 414 431 371 431 q 331 431 298 402 q 265 374 247 318 q 229 263 229 221 z"},"X":{"x_min":0,"x_max":667,"ha":667,"o":"m 160 0 l -30 0 l 286 362 l 108 716 l 262 716 l 332 582 q 335 574 379 482 q 382 478 386 469 q 445 542 486 588 l 599 716 l 784 716 l 456 339 l 632 0 l 466 0 l 413 108 q 371 193 357 230 q 338 202 259 111 z"},"*":{"x_min":0,"x_max":389,"ha":389,"o":"m 204 387 l 130 444 q 166 483 204 520 q 219 534 223 538 q 210 540 153 554 q 111 564 98 569 l 127 655 q 191 629 241 598 q 229 678 229 728 l 316 728 q 316 692 303 597 q 313 601 345 616 q 389 636 426 650 l 452 562 q 398 550 327 538 l 385 472 q 403 452 413 439 l 338 390 l 272 499 q 243 446 204 387 z"},"Y":{"x_min":0,"x_max":667,"ha":667,"o":"m 401 0 l 254 0 l 312 279 l 115 716 l 271 716 l 360 514 q 392 441 403 409 q 421 440 445 476 l 513 571 l 614 716 l 785 716 l 457 265 z"},"c":{"x_min":0,"x_max":556,"ha":556,"o":"m 392 195 l 528 173 q 494 83 428 35 q 362 -12 275 -12 q 176 -12 118 47 q 60 106 60 209 q 60 294 95 369 q 130 444 201 488 q 272 531 356 531 q 448 531 503 483 q 558 435 564 357 l 431 343 q 426 386 405 407 q 383 427 348 427 q 307 427 272 397 q 237 367 218 306 q 199 246 199 193 q 199 147 222 123 q 244 98 278 98 q 312 98 343 122 q 374 146 392 195 z"},"!":{"x_min":0,"x_max":333,"ha":333,"o":"m 204 182 l 127 182 l 171 547 l 206 716 l 353 716 l 315 535 z m 90 135 l 229 135 l 200 0 l 62 0 z"},"/":{"x_min":0,"x_max":278,"ha":278,"o":"m -43 -12 l 311 728 l 409 728 l 55 -12 z"},"[":{"x_min":0,"x_max":333,"ha":333,"o":"m 271 -93 l 249 -197 l 10 -197 l 201 716 l 439 716 l 417 607 l 310 607 l 164 -93 z"},"6":{"x_min":0,"x_max":556,"ha":556,"o":"m 576 541 l 444 530 q 440 573 424 590 q 408 607 380 607 q 344 607 316 579 q 277 538 253 448 q 298 478 349 478 q 432 478 486 421 q 540 364 540 267 q 540 189 502 120 q 464 51 408 19 q 352 -13 290 -13 q 229 -13 181 17 q 133 47 107 105 q 81 163 81 259 q 81 451 166 585 q 251 719 390 719 q 470 719 518 675 q 565 631 576 541 z m 216 210 q 216 154 238 127 q 261 100 294 100 q 335 100 364 138 q 404 189 404 276 q 404 332 382 358 q 360 385 328 385 q 301 385 274 365 q 247 344 231 300 q 216 256 216 210 z"},"r":{"x_min":0,"x_max":389,"ha":389,"o":"m 141 519 l 271 519 l 250 418 q 324 531 409 531 q 439 531 474 516 l 420 401 q 401 408 380 408 q 344 408 306 380 q 269 353 248 307 q 227 262 207 163 l 172 0 l 32 0 z"},"2":{"x_min":0,"x_max":556,"ha":556,"o":"m 264 493 l 127 513 q 144 613 204 666 q 265 719 356 719 q 457 719 514 665 q 571 610 571 527 q 571 484 553 442 q 536 399 496 352 q 467 319 401 258 q 336 197 315 175 q 293 153 274 128 l 522 128 l 496 0 l 61 0 q 67 53 92 100 q 116 148 152 189 q 188 230 284 321 q 356 391 375 412 q 410 450 422 478 q 435 505 435 528 q 435 564 414 586 q 393 609 360 609 q 327 609 302 584 q 277 559 264 493 z"},"{":{"x_min":0,"x_max":389,"ha":389,"o":"m 42 200 l 67 317 q 103 319 124 328 q 145 337 162 359 q 180 381 190 410 q 201 438 214 501 q 233 590 252 628 q 271 666 298 686 q 324 707 371 720 q 401 728 465 728 l 490 728 l 465 611 q 410 611 392 604 q 374 597 365 583 q 358 572 343 511 q 315 402 306 379 q 289 336 265 310 q 241 283 197 259 q 226 240 240 213 q 253 186 253 142 q 253 125 248 89 q 231 -6 227 -23 q 223 -41 223 -53 q 223 -66 230 -75 q 237 -84 251 -89 q 265 -93 312 -93 l 287 -210 l 261 -210 q 193 -210 160 -199 q 127 -188 109 -163 q 91 -138 91 -98 q 91 -65 108 13 q 125 91 125 117 q 125 159 107 178 q 88 198 42 200 z"},"9":{"x_min":0,"x_max":556,"ha":556,"o":"m 63 165 l 195 176 q 199 134 215 117 q 231 100 259 100 q 295 100 322 127 q 362 168 386 258 q 340 229 290 229 q 207 229 153 285 q 100 342 100 439 q 100 549 168 634 q 237 719 351 719 q 452 719 505 646 q 558 572 558 447 q 558 254 473 121 q 388 -12 249 -12 q 167 -12 118 34 q 69 81 63 165 z m 423 496 q 423 553 401 579 q 378 606 345 606 q 304 606 275 568 q 235 517 235 430 q 235 375 257 348 q 279 321 311 321 q 338 321 365 342 q 393 362 408 406 q 423 451 423 496 z"}," ":{"x_min":0,"x_max":278,"ha":278,"o":""},"I":{"x_min":0,"x_max":278,"ha":278,"o":"m 35 0 l 185 716 l 332 716 l 182 0 z"},"H":{"x_min":0,"x_max":722,"ha":722,"o":"m 535 320 l 258 320 l 191 0 l 43 0 l 193 716 l 340 716 l 283 439 l 560 439 l 618 716 l 765 716 l 615 0 l 468 0 z"},"4":{"x_min":0,"x_max":556,"ha":556,"o":"m 309 146 l 27 146 l 52 263 l 439 716 l 560 716 l 466 265 l 553 265 l 528 146 l 441 146 l 410 0 l 278 0 z m 334 265 l 380 488 l 191 265 z"},"~":{"x_min":0,"x_max":584,"ha":584,"o":"m 67 253 l 67 380 q 102 417 143 435 q 172 447 213 447 q 244 447 272 440 q 301 433 375 402 q 423 382 452 382 q 521 382 585 451 l 585 319 q 562 295 521 274 q 480 254 443 254 q 418 254 393 260 q 368 267 318 289 q 243 321 200 321 q 132 321 67 253 z"},"D":{"x_min":0,"x_max":722,"ha":722,"o":"m 43 0 l 193 716 l 386 716 q 467 716 489 713 q 534 709 569 695 q 604 682 632 657 q 661 632 681 598 q 702 563 713 518 q 725 473 725 419 q 725 303 680 214 q 636 124 569 71 q 518 30 437 11 q 391 0 296 0 z m 215 115 l 290 115 q 371 115 407 125 q 443 135 474 163 q 517 202 547 268 q 577 334 577 423 q 577 500 552 538 q 527 576 491 589 q 466 598 401 598 l 315 598 z"},"^":{"x_min":0,"x_max":584,"ha":584,"o":"m 105 338 l 289 728 l 397 728 l 576 338 l 438 338 l 341 577 l 245 338 z"},"0":{"x_min":0,"x_max":556,"ha":556,"o":"m 64 233 q 64 341 101 452 q 146 587 216 653 q 287 719 373 719 q 459 719 515 656 q 571 593 571 473 q 571 363 531 240 q 490 118 420 53 q 351 -12 264 -12 q 177 -12 121 51 q 64 114 64 233 z m 202 205 q 202 147 221 124 q 239 100 269 100 q 308 100 338 136 q 378 185 410 327 q 435 439 435 505 q 435 559 416 583 q 397 606 368 606 q 331 606 302 571 q 259 519 229 389 q 202 276 202 205 z"},"F":{"x_min":0,"x_max":611,"ha":611,"o":"m 39 0 l 189 716 l 690 716 l 665 596 l 311 596 l 275 424 l 622 424 l 597 305 l 250 305 l 187 0 z"},"`":{"x_min":0,"x_max":333,"ha":333,"o":"m 134 732 l 269 732 l 331 586 l 236 586 z"},"k":{"x_min":0,"x_max":556,"ha":556,"o":"m 38 0 l 188 716 l 328 716 l 250 343 l 432 519 l 614 519 l 406 330 l 517 0 l 376 0 l 305 240 l 210 156 l 178 0 z"},"u":{"x_min":0,"x_max":611,"ha":611,"o":"m 147 519 l 288 519 l 224 211 q 212 156 212 143 q 212 120 229 104 q 245 88 271 88 q 290 88 308 95 q 326 102 345 116 q 364 131 379 149 q 394 168 407 198 q 417 221 427 271 l 479 519 l 619 519 l 511 0 l 380 0 l 395 70 q 309 -12 208 -12 q 144 -12 107 24 q 70 61 70 123 q 70 149 87 229 z"},"]":{"x_min":0,"x_max":333,"ha":333,"o":"m 113 611 l 135 716 l 375 716 l 184 -197 l -56 -197 l -33 -88 l 75 -88 l 221 611 z"},"U":{"x_min":0,"x_max":722,"ha":722,"o":"m 191 716 l 338 716 l 257 327 l 237 231 q 235 219 235 208 q 235 166 266 138 q 297 111 356 111 q 409 111 444 131 q 479 151 498 190 q 517 230 536 325 l 618 716 l 765 716 l 684 324 q 658 201 624 135 q 590 70 522 29 q 454 -12 349 -12 q 224 -12 158 49 q 91 110 91 207 q 91 227 95 250 q 97 266 112 339 z"},"o":{"x_min":0,"x_max":611,"ha":611,"o":"m 61 215 q 61 359 142 445 q 223 531 355 531 q 470 531 535 468 q 599 404 599 297 q 599 171 519 80 q 438 -12 303 -12 q 229 -12 173 17 q 116 46 88 100 q 61 154 61 215 z m 460 315 q 460 365 431 395 q 402 425 356 425 q 311 425 275 397 q 240 369 221 316 q 201 262 201 217 q 201 162 231 129 q 262 96 308 96 q 365 96 404 146 q 460 215 460 315 z"},"N":{"x_min":0,"x_max":722,"ha":722,"o":"m 613 0 l 476 0 l 283 481 l 182 0 l 45 0 l 194 716 l 332 716 l 526 237 l 626 716 l 763 716 z"},"+":{"x_min":0,"x_max":584,"ha":584,"o":"m 268 103 l 268 289 l 81 289 l 81 417 l 268 417 l 268 604 l 393 604 l 393 417 l 581 417 l 581 289 l 393 289 l 393 103 z"},"G":{"x_min":0,"x_max":778,"ha":778,"o":"m 439 382 l 760 382 l 695 75 q 639 39 556 13 q 474 -12 389 -12 q 256 -12 185 48 q 88 130 88 286 q 88 390 130 486 q 180 601 271 665 q 363 728 487 728 q 611 728 686 670 q 761 613 786 502 l 648 487 q 630 547 590 578 q 550 609 489 609 q 417 609 358 572 q 298 535 265 457 q 231 379 231 288 q 231 197 272 154 q 313 111 392 111 q 439 111 489 124 q 539 138 575 156 l 597 263 l 415 263 z"},"q":{"x_min":0,"x_max":611,"ha":611,"o":"m 496 519 l 625 519 l 476 -198 l 335 -198 l 386 44 q 349 14 316 1 q 283 -12 242 -12 q 159 -12 109 43 q 60 98 60 204 q 60 287 93 366 q 127 445 187 488 q 247 531 316 531 q 429 531 479 437 z m 195 206 q 195 154 223 123 q 251 92 292 92 q 327 92 360 116 q 394 141 414 196 q 435 252 435 303 q 435 361 405 394 q 375 427 336 427 q 304 427 271 402 q 237 376 216 318 q 195 260 195 206 z"},"d":{"x_min":0,"x_max":611,"ha":611,"o":"m 519 0 l 386 0 l 398 56 q 360 20 323 4 q 286 -12 240 -12 q 159 -12 109 43 q 59 98 59 205 q 59 330 129 430 q 200 531 315 531 q 420 531 472 448 l 528 716 l 668 716 z m 195 211 q 195 155 223 124 q 251 93 292 93 q 331 93 364 119 q 396 145 416 199 q 436 252 436 302 q 436 358 406 393 q 375 427 336 427 q 274 427 235 359 q 195 291 195 211 z"},"1":{"x_min":0,"x_max":556,"ha":556,"o":"m 119 411 l 145 536 q 326 615 425 720 l 511 720 l 360 0 l 219 0 l 323 496 q 279 468 221 444 q 164 421 119 411 z"},"5":{"x_min":0,"x_max":556,"ha":556,"o":"m 63 205 l 200 217 q 199 208 199 203 q 199 153 221 128 q 244 103 279 103 q 329 103 370 151 q 411 198 411 282 q 411 332 388 357 q 365 383 327 383 q 299 383 274 370 q 248 357 224 332 l 109 340 l 218 706 l 578 706 l 551 578 l 313 578 l 281 468 q 301 477 322 482 q 342 486 362 486 q 444 486 497 431 q 550 376 550 283 q 550 209 513 137 q 476 65 411 26 q 345 -12 273 -12 q 182 -12 123 47 q 64 106 63 205 z"}}}
